<svg width="35" height="35" viewBox="0 0 35 35" fill="none" xmlns="http://www.w3.org/2000/svg">
<g id="cib:vk" clip-path="url(#clip0_1001_10773)">
<path id="Vector" d="M22.8686 0H12.1247C2.32031 0 -0.00390625 2.32422 -0.00390625 12.1286V22.8725C-0.00390625 32.6769 2.32031 35.0011 12.1247 35.0011H22.8686C32.673 35.0011 34.9972 32.6769 34.9972 22.8725V12.1286C34.9972 2.32422 32.65 0 22.8686 0ZM28.252 24.9681H25.7113C24.7487 24.9681 24.4523 24.2047 22.7209 22.4503C21.217 20.9923 20.5509 20.7987 20.1802 20.7987C19.6562 20.7987 19.5075 20.9464 19.5075 21.665V23.9608C19.5075 24.5766 19.3139 24.9463 17.6842 24.9463C14.9892 24.9463 11.9989 23.3166 9.90219 20.2803C6.74016 15.8309 5.875 12.4983 5.875 11.8092C5.875 11.4384 6.02266 11.0917 6.73469 11.0917H9.28094C9.92516 11.0917 10.1702 11.3881 10.4206 12.0772C11.6795 15.7117 13.7763 18.8956 14.6414 18.8956C14.9608 18.8956 15.1084 18.748 15.1084 17.9331V14.1794C15.0111 12.448 14.1 12.2992 14.1 11.6845C14.1 11.3881 14.345 11.0917 14.7377 11.0917H18.7419C19.2833 11.0917 19.4823 11.3881 19.4823 12.0258V17.0898C19.4823 17.6367 19.7273 17.8303 19.875 17.8303C20.1944 17.8303 20.4678 17.6367 21.0595 17.0439C22.8883 14.9931 24.1986 11.8311 24.1986 11.8311C24.3692 11.4603 24.6656 11.1136 25.3098 11.1136H27.8561C28.6195 11.1136 28.7902 11.5063 28.6195 12.0531C28.3002 13.5341 25.1841 17.932 25.1841 17.932C24.9161 18.3761 24.8133 18.5697 25.1841 19.0652C25.4575 19.4359 26.3467 20.2048 26.9384 20.8939C28.0267 22.1298 28.8634 23.1667 29.0866 23.8842C29.337 24.5963 28.9673 24.967 28.2487 24.967L28.252 24.9681Z" fill="white"/>
</g>
<defs>
<clipPath id="clip0_1001_10773">
<rect width="35" height="35" fill="white"/>
</clipPath>
</defs>
</svg>
